<?xml version="1.0" encoding="utf-8"?>
<!-- Svg Vector Icons : http://www.onlinewebfonts.com/icon -->
<!DOCTYPE svg PUBLIC "-//W3C//DTD SVG 1.1//EN" "http://www.w3.org/Graphics/SVG/1.1/DTD/svg11.dtd">
<svg version="1.1" xmlns="http://www.w3.org/2000/svg" xmlns:xlink="http://www.w3.org/1999/xlink" x="0px" y="0px" viewBox="0 0 256 256" enable-background="new 0 0 256 256" xml:space="preserve">
<metadata> Svg Vector Icons : http://www.onlinewebfonts.com/icon </metadata>
<g><g><path fill="#000000" d="M128,10C62.8,10,10,62.8,10,128c0,65.2,52.8,118,118,118c65.2,0,118-52.8,118-118C246,62.8,193.2,10,128,10z M194.3,89.9c-3.1,5.8-7,12.5-11.7,20.2c-4.7,7.7-10,15.9-15.7,24.6c-5.7,8.7-11.4,17-16.9,25.1c-5.5,8.1-10.5,15.5-15.1,22.3c-4.6,6.8-8,12-10.4,15.8c-0.5,0.7-2.3,1-5.5,1c-1.3,0-2.2-0.2-2.6-0.6c-0.4-0.4-0.8-1.2-1.1-2.2c-1.5-4.7-3.2-10-5.1-15.8c-1.9-5.8-4-11.6-6.1-17.6c-2.2-5.9-4.4-11.8-6.6-17.7c-2.2-5.9-4.5-11.3-6.6-16.4C85,114.3,80,104.4,76,98.7c-4.1-5.7-7.9-8.5-11.4-8.5c-1,0-2,0.2-2.9,0.5c-0.9,0.3-1.8,0.7-2.6,1c-0.3,0-0.8-0.4-1.4-1.2c-0.6-0.8-0.7-1.3-0.4-1.7c0.2-0.2,1.8-1.3,4.7-3.3c3-2,6.5-4.3,10.5-6.7s8-4.7,12.1-6.7c4.1-2,7.4-3.1,9.9-3.1c3.8,0,7.3,3.6,10.5,10.8c3.2,7.2,6.9,17.2,11.2,29.9l19.1,58.6c0.7-1,2-3.1,3.9-6.2c1.9-3.1,4.1-7,6.5-11.6c2.4-4.6,4.9-9.6,7.5-14.9c2.6-5.3,5-10.7,7.1-16.2c2.2-5.4,3.9-10.6,5.4-15.4c1.4-4.8,2.1-9,2.1-12.6c0-2.7-0.3-4.9-1-6.5c-0.7-1.6-1.6-2.8-2.9-3.7c-1.3-0.8-2.7-1.4-4.4-1.8c-1.7-0.3-3.4-0.5-5.3-0.5c-1,0-2,0.1-3,0.3c-1,0.2-2,0.4-3,0.8c-1,0.3-1.8,0.2-2.4-0.4c-0.6-0.6-0.9-1.1-0.9-1.4c0-0.7,1.1-1.5,3.4-2.6c2.2-1,5.3-2,9.2-2.8c3.9-0.8,8.4-1.6,13.5-2.2c5.1-0.6,10.4-0.9,15.8-0.9c7.8,0,11.7,2.6,11.7,7.9C198.9,80.1,197.4,84.2,194.3,89.9z"/></g></g>
</svg>